# xmcd
# 
# Track frame offsets:
#     150
#     26255
#     44483
#     58802
#     75877
#     94741
#     115503
#     129201
#     150408
#     168087
#     187998
#     205009
#     221961
#     234886
# 
# Disc length: 3409
# 
# Revision: 1
# Processed by: cddbd v1.5.2PL0 Copyright (c) Steve Scherf et al.
# Submitted via: BonkEnc v1.0
# 
DISCID=a00d4f0e
DTITLE=Vari - Graffiti Italiani
DYEAR=2004
DGENRE=Revival
TTITLE0=Teorema
TTITLE1=Ancora
TTITLE2=Respiro
TTITLE3=Tutto il resto è noia
TTITLE4=Io domani
TTITLE5=Quella carezza della sera
TTITLE6=Gioco di bimba
TTITLE7=Non voglio mica la luna
TTITLE8=Tu mi rubi l'anima
TTITLE9=Ciao
TTITLE10=Non si può morire dentro
TTITLE11=Ricominciamo
TTITLE12=Eppure soffia
TTITLE13=Figli delle stelle
EXTD=
EXTT0=
EXTT1=
EXTT2=
EXTT3=
EXTT4=
EXTT5=
EXTT6=
EXTT7=
EXTT8=
EXTT9=
EXTT10=
EXTT11=
EXTT12=
EXTT13=
PLAYORDER=
